<?xml version="1.0" encoding="iso-8859-1"?>
<!-- Generator: Adobe Illustrator 27.0.0, SVG Export Plug-In . SVG Version: 6.00 Build 0)  -->
<svg version="1.1" id="&#x56FE;&#x5C42;_1" xmlns="http://www.w3.org/2000/svg" xmlns:xlink="http://www.w3.org/1999/xlink" x="0px"
	 y="0px" viewBox="0 0 1252 1252" style="enable-background:new 0 0 1252 1252;" xml:space="preserve">
<image style="display:none;overflow:visible;" width="1252" height="1252" xlink:href="H:\GitHub\RETEBeta\assets\img\rete.png" >
</image>
<rect x="176" y="507" style="fill:#3E67B0;" width="59" height="246"/>
<rect x="233" y="507" style="fill:#3E67B0;" width="135" height="46"/>
<rect x="233" y="619" style="fill:#3E67B0;" width="135" height="47"/>
<linearGradient id="SVGID_1_" gradientUnits="userSpaceOnUse" x1="334.5" y1="665.4777" x2="334.5" y2="753.2274">
	<stop  offset="0" style="stop-color:#3E67B0"/>
	<stop  offset="0.4604" style="stop-color:#4069B1"/>
	<stop  offset="0.6262" style="stop-color:#476FB6"/>
	<stop  offset="0.7444" style="stop-color:#527ABD"/>
	<stop  offset="0.84" style="stop-color:#6389C8"/>
	<stop  offset="0.9209" style="stop-color:#799DD6"/>
	<stop  offset="0.9922" style="stop-color:#94B5E8"/>
	<stop  offset="1" style="stop-color:#97B8EA"/>
</linearGradient>
<polygon style="fill:url(#SVGID_1_);" points="392,753 323,753 323.111,752.773 277.111,664.796 277,665.023 344,665.023 344,664 
	390,751.977 "/>
<linearGradient id="SVGID_00000047752610973777949160000002743537850154378636_" gradientUnits="userSpaceOnUse" x1="312" y1="586.5" x2="374" y2="586.5">
	<stop  offset="0" style="stop-color:#3E67B0"/>
	<stop  offset="0.5379" style="stop-color:#4069B1"/>
	<stop  offset="0.7314" style="stop-color:#476FB6"/>
	<stop  offset="0.8656" style="stop-color:#5279BD"/>
	<stop  offset="0.8942" style="stop-color:#587FC1"/>
	<stop  offset="0.9333" style="stop-color:#6A8FCD"/>
	<stop  offset="0.9783" style="stop-color:#87A9DF"/>
	<stop  offset="1" style="stop-color:#97B8EA"/>
</linearGradient>
<rect x="312" y="507" style="fill:url(#SVGID_00000047752610973777949160000002743537850154378636_);" width="62" height="159"/>
<linearGradient id="SVGID_00000042723057951125097140000010321177747203527332_" gradientUnits="userSpaceOnUse" x1="312" y1="586" x2="334" y2="586">
	<stop  offset="0" style="stop-color:#97B8EA"/>
	<stop  offset="0.0814" style="stop-color:#95B6E9"/>
	<stop  offset="0.1107" style="stop-color:#8EB0E4"/>
	<stop  offset="0.1316" style="stop-color:#83A5DD"/>
	<stop  offset="0.1485" style="stop-color:#7296D2"/>
	<stop  offset="0.1628" style="stop-color:#5C82C4"/>
	<stop  offset="0.1754" style="stop-color:#416AB2"/>
	<stop  offset="0.1768" style="stop-color:#3E67B0"/>
	<stop  offset="0.8656" style="stop-color:#3E67B0"/>
</linearGradient>
<rect x="312" y="553" style="fill:url(#SVGID_00000042723057951125097140000010321177747203527332_);" width="22" height="66"/>
<linearGradient id="SVGID_00000029020936036442011530000009435141576891640464_" gradientUnits="userSpaceOnUse" x1="443" y1="626" x2="506" y2="626">
	<stop  offset="0" style="stop-color:#3E67B0"/>
	<stop  offset="0.7511" style="stop-color:#3E67B0"/>
	<stop  offset="0.8748" style="stop-color:#3E67B0"/>
	<stop  offset="0.8887" style="stop-color:#456DB4"/>
	<stop  offset="0.9084" style="stop-color:#577EC0"/>
	<stop  offset="0.9313" style="stop-color:#7599D4"/>
	<stop  offset="0.9524" style="stop-color:#97B8EA"/>
</linearGradient>
<rect x="443" y="507" style="fill:url(#SVGID_00000029020936036442011530000009435141576891640464_);" width="63" height="238"/>
<linearGradient id="SVGID_00000075868696771859887890000017978395876355506851_" gradientUnits="userSpaceOnUse" x1="499" y1="530" x2="619" y2="530">
	<stop  offset="0" style="stop-color:#3E67B0"/>
	<stop  offset="0.7717" style="stop-color:#3E67B0"/>
	<stop  offset="0.8988" style="stop-color:#3E67B0"/>
	<stop  offset="0.9084" style="stop-color:#456DB4"/>
	<stop  offset="0.922" style="stop-color:#577EC0"/>
	<stop  offset="0.9378" style="stop-color:#7599D4"/>
	<stop  offset="0.9524" style="stop-color:#97B8EA"/>
</linearGradient>
<rect x="499" y="507" style="fill:url(#SVGID_00000075868696771859887890000017978395876355506851_);" width="120" height="46"/>
<linearGradient id="SVGID_00000042710405100426137510000012475281061432234147_" gradientUnits="userSpaceOnUse" x1="499" y1="630" x2="606" y2="630">
	<stop  offset="0" style="stop-color:#3E67B0"/>
	<stop  offset="0.7511" style="stop-color:#3E67B0"/>
	<stop  offset="0.8748" style="stop-color:#3E67B0"/>
	<stop  offset="0.8887" style="stop-color:#456DB4"/>
	<stop  offset="0.9084" style="stop-color:#577EC0"/>
	<stop  offset="0.9313" style="stop-color:#7599D4"/>
	<stop  offset="0.9524" style="stop-color:#97B8EA"/>
</linearGradient>
<rect x="499" y="609" style="fill:url(#SVGID_00000042710405100426137510000012475281061432234147_);" width="107" height="42"/>
<linearGradient id="SVGID_00000058579355444715923110000004246745674938338180_" gradientUnits="userSpaceOnUse" x1="499" y1="723.5" x2="619" y2="723.5">
	<stop  offset="0" style="stop-color:#3E67B0"/>
	<stop  offset="0.7511" style="stop-color:#3E67B0"/>
	<stop  offset="0.8748" style="stop-color:#3E67B0"/>
	<stop  offset="0.8887" style="stop-color:#456DB4"/>
	<stop  offset="0.9084" style="stop-color:#577EC0"/>
	<stop  offset="0.9313" style="stop-color:#7599D4"/>
	<stop  offset="0.9524" style="stop-color:#97B8EA"/>
</linearGradient>
<rect x="499" y="702" style="fill:url(#SVGID_00000058579355444715923110000004246745674938338180_);" width="120" height="43"/>
<linearGradient id="SVGID_00000152967487267957723010000009835597945903779468_" gradientUnits="userSpaceOnUse" x1="443" y1="747.5" x2="619" y2="747.5">
	<stop  offset="0" style="stop-color:#5C85CE"/>
	<stop  offset="0.9105" style="stop-color:#5B83CD"/>
	<stop  offset="0.9226" style="stop-color:#5B83CD"/>
	<stop  offset="0.9331" style="stop-color:#6289D0"/>
	<stop  offset="0.9481" style="stop-color:#7499D9"/>
	<stop  offset="0.9655" style="stop-color:#92B4E8"/>
	<stop  offset="0.968" style="stop-color:#97B8EA"/>
</linearGradient>
<rect x="443" y="745" style="fill:url(#SVGID_00000152967487267957723010000009835597945903779468_);" width="176" height="5"/>
<rect x="659" y="507" style="fill:#3E67B0;" width="200" height="46"/>
<linearGradient id="SVGID_00000114794683003514327930000002738477075988714662_" gradientUnits="userSpaceOnUse" x1="758" y1="553.2222" x2="758" y2="753.8148">
	<stop  offset="0" style="stop-color:#3E67B0"/>
	<stop  offset="0.8079" style="stop-color:#3E67B0"/>
	<stop  offset="0.9409" style="stop-color:#3E67B0"/>
	<stop  offset="0.9501" style="stop-color:#456DB6"/>
	<stop  offset="0.963" style="stop-color:#577FC7"/>
	<stop  offset="0.968" style="stop-color:#6088CF"/>
</linearGradient>
<rect x="730" y="553" style="fill:url(#SVGID_00000114794683003514327930000002738477075988714662_);" width="56" height="197"/>
<rect x="898" y="507" style="fill:#3E67B0;" width="58" height="239"/>
<rect x="954" y="507" style="fill:#3E67B0;" width="120" height="46"/>
<rect x="954" y="609" style="fill:#3E67B0;" width="107" height="42"/>
<rect x="954" y="699" style="fill:#3E67B0;" width="120" height="47"/>
<rect x="898" y="746" style="fill:#5B83CD;" width="176" height="5"/>
<g id="XMLID_00000139973473227641952890000004921250155474596486_">
	<g>
		<path style="fill:#3E67B0;" d="M626,0c345.73,0,626,280.27,626,626s-280.27,626-626,626S0,971.73,0,626S280.27,0,626,0z
			 M1198.5,626c0-316.18-256.32-572.5-572.5-572.5S53.5,309.82,53.5,626s256.32,572.5,572.5,572.5S1198.5,942.18,1198.5,626z"/>
	</g>
	<g>
	</g>
</g>
<g id="XMLID_00000148638222964275765500000017180576157268385971_">
	<g>
		<path style="fill:#FF6600;" d="M626,53.5c316.18,0,572.5,256.32,572.5,572.5S942.18,1198.5,626,1198.5S53.5,942.18,53.5,626
			S309.82,53.5,626,53.5z M1166.5,626.5c0-298.23-241.77-540-540-540s-540,241.77-540,540s241.77,540,540,540
			S1166.5,924.73,1166.5,626.5z"/>
	</g>
	<g>
	</g>
</g>
</svg>
